Coordinates
version=1
nRows=17
nColumns=63
inDegrees=yes

Units are S.I. units (second, meters, Newtons, ...)
If the header above contains a line with 'inDegrees', this indicates whether rotational values are in degrees (yes) or radians (no).

endheader
time	pelvis_tilt	pelvis_list	pelvis_rotation	pelvis_tx	pelvis_ty	pelvis_tz	hip_flexion_r	hip_adduction_r	hip_rotation_r	knee_angle_r	knee_angle_r_beta	ankle_angle_r	subtalar_angle_r	mtp_angle_r	hip_flexion_l	hip_adduction_l	hip_rotation_l	knee_angle_l	knee_angle_l_beta	ankle_angle_l	subtalar_angle_l	mtp_angle_l	L5_S1_Flex_Ext	L5_S1_Lat_Bending	L5_S1_axial_rotation	L4_L5_Flex_Ext	L4_L5_Lat_Bending	L4_L5_axial_rotation	L3_L4_Flex_Ext	L3_L4_Lat_Bending	L3_L4_axial_rotation	L2_L3_Flex_Ext	L2_L3_Lat_Bending	L2_L3_axial_rotation	L1_L2_Flex_Ext	L1_L2_Lat_Bending	L1_L2_axial_rotation	L1_T12_Flex_Ext	L1_T12_Lat_Bending	L1_T12_axial_rotation	Abs_r3	Abs_r2	Abs_r1	Abs_t1	Abs_t2	neck_flexion	neck_bending	neck_rotation	arm_flex_r	arm_add_r	arm_rot_r	elbow_flex_r	pro_sup_r	wrist_flex_r	wrist_dev_r	arm_flex_l	arm_add_l	arm_rot_l	elbow_flex_l	pro_sup_l	wrist_flex_l	wrist_dev_l
8.300000	2.258542	-0.353852	111.636436	0.237781	0.785804	0.860699	-2.555297	1.369147	-10.330456	7.800356	0.136142	36.878387	5.059675	0.000000	-1.586281	-6.178678	20.119599	4.252061	0.074212	29.857346	-2.372762	0.000000	0.012558	-0.167848	-2.420354	0.023322	-0.223237	-2.571626	0.020632	-0.408105	-2.571626	0.014353	-0.408105	-2.117809	0.011662	-0.342275	-1.966537	0.007176	-0.259996	-1.815265	0.089704	-1.898727	-13.461280	0.000000	0.000000	9.497287	7.412226	0.479419	111.956515	-42.784587	59.173585	98.146034	85.943605	-6.460754	13.895768	16.444865	-8.084710	3.454364	110.226135	88.248829	-8.031897	25.769581
8.316667	2.312568	-0.452519	111.369741	0.237851	0.785528	0.860640	-2.531380	1.354328	-11.384960	7.526771	0.131367	36.955575	5.867397	0.000000	-1.393626	-6.187017	19.492231	4.568840	0.079741	29.862724	-1.775617	0.000000	0.000611	-0.165930	-2.415756	0.001134	-0.220687	-2.566741	0.001003	-0.403442	-2.566741	0.000698	-0.403442	-2.113787	0.000567	-0.338364	-1.962802	0.000349	-0.257026	-1.811817	0.004362	-1.877033	-13.435710	0.000000	0.000000	9.178589	7.748029	0.995997	109.942861	-42.519762	54.748153	98.069355	85.692455	-5.387362	14.106296	16.283912	-8.084403	3.220316	110.791076	88.129915	-8.137364	27.141397
8.333333	2.384333	-0.531989	111.109871	0.237935	0.785297	0.860661	-2.512484	1.379628	-12.101025	7.256858	0.126656	36.916931	6.290111	0.000000	-1.199815	-6.213189	18.774539	4.891139	0.085366	29.859133	-1.166383	0.000000	-0.010504	-0.159166	-2.413758	-0.019507	-0.211691	-2.564618	-0.017257	-0.386997	-2.564618	-0.012005	-0.386997	-2.112038	-0.009754	-0.324572	-1.961178	-0.006002	-0.246549	-1.810319	-0.075028	-1.800523	-13.424598	0.000000	0.000000	9.044742	8.014120	1.531902	108.439543	-42.236304	51.547888	98.111178	85.400902	-4.436180	14.164726	16.147791	-8.085622	2.987913	111.279357	87.992621	-8.243401	28.279969
8.350000	2.426900	-0.589493	110.874683	0.238083	0.785122	0.860706	-2.504461	1.400124	-12.506356	7.020397	0.122529	36.841830	6.418254	0.000000	-1.030453	-6.218512	18.018526	5.191979	0.090617	29.866308	-0.542368	0.000000	-0.019964	-0.154555	-2.422712	-0.037074	-0.205558	-2.574131	-0.032798	-0.375785	-2.574131	-0.022816	-0.375785	-2.119873	-0.018538	-0.315169	-1.968453	-0.011407	-0.239406	-1.817034	-0.142597	-1.748358	-13.474396	0.000000	0.000000	9.073510	8.215264	2.029589	107.311532	-41.894536	49.491725	98.293943	85.155502	-3.359985	14.292199	16.029156	-8.121390	2.722193	111.709192	87.861055	-8.335422	29.280958
8.366667	2.474476	-0.605383	110.678852	0.238220	0.784983	0.860762	-2.504463	1.453456	-12.640791	6.827578	0.119164	36.750998	6.299251	0.000000	-0.892960	-6.241594	17.289375	5.460374	0.095302	29.915253	0.036385	0.000000	-0.026069	-0.146742	-2.425427	-0.048413	-0.195167	-2.577016	-0.042829	-0.356789	-2.577016	-0.029795	-0.356789	-2.122249	-0.024208	-0.299237	-1.970660	-0.014896	-0.227304	-1.819070	-0.186210	-1.659977	-13.489499	0.000000	0.000000	9.203199	8.264385	2.365449	106.829773	-41.589358	49.103446	98.618063	84.953763	-2.716708	14.077766	15.988981	-8.147920	2.566904	111.948695	87.710890	-8.479367	29.933085
8.383333	2.513671	-0.575818	110.534663	0.238365	0.784888	0.860793	-2.513254	1.539263	-12.376522	6.696631	0.116878	36.631680	5.770548	0.000000	-0.801065	-6.276967	16.596591	5.681977	0.099169	30.009933	0.597873	0.000000	-0.028284	-0.137685	-2.429814	-0.052527	-0.183122	-2.581677	-0.046468	-0.334768	-2.581677	-0.032326	-0.334768	-2.126087	-0.026265	-0.280768	-1.974224	-0.016162	-0.213275	-1.822360	-0.202032	-1.557524	-13.513896	0.000000	0.000000	9.376724	8.217281	2.618813	106.839226	-41.302985	50.165269	99.023866	84.796981	-2.323838	13.546348	15.999501	-8.192851	2.480052	112.016194	87.548422	-8.630449	30.247372
8.400000	2.561762	-0.502610	110.457964	0.238456	0.784824	0.860795	-2.521839	1.649260	-12.038499	6.639813	0.115887	36.567154	5.259383	0.000000	-0.746781	-6.338654	16.018599	5.857080	0.102225	30.147562	1.071029	0.000000	-0.026728	-0.124526	-2.440232	-0.049637	-0.165619	-2.592747	-0.043911	-0.302772	-2.592747	-0.030547	-0.302772	-2.135203	-0.024820	-0.253933	-1.982689	-0.015272	-0.192890	-1.830174	-0.190915	-1.408659	-13.571838	0.000000	0.000000	9.601079	8.093288	2.893117	107.266978	-41.050728	52.478097	99.494863	84.645604	-2.151302	12.888816	16.028611	-8.241901	2.433763	111.941868	87.372328	-8.774451	30.246773
8.416667	2.607176	-0.401331	110.431456	0.238530	0.784793	0.860742	-2.521961	1.779157	-11.449744	6.657916	0.116203	36.509393	4.537762	0.000000	-0.726890	-6.412380	15.534471	5.981915	0.104404	30.306885	1.479716	0.000000	-0.021077	-0.110781	-2.454625	-0.039141	-0.147339	-2.608039	-0.034627	-0.269353	-2.608039	-0.024088	-0.269353	-2.147797	-0.019572	-0.225905	-1.994383	-0.012043	-0.171600	-1.840969	-0.150548	-1.253177	-13.651889	0.000000	0.000000	9.861542	7.927654	3.142689	108.009744	-40.852254	55.790583	99.946664	84.525850	-2.315491	11.995481	16.053432	-8.314531	2.428236	111.766083	87.190481	-8.932375	29.981285
8.433333	2.653344	-0.272348	110.460786	0.238540	0.784803	0.860655	-2.522919	1.921651	-10.747602	6.747920	0.117773	36.468902	3.755822	0.000000	-0.739158	-6.499131	15.162229	6.066506	0.105880	30.475260	1.833260	0.000000	-0.013594	-0.095230	-2.483546	-0.025246	-0.126655	-2.638768	-0.022334	-0.231541	-2.638768	-0.015537	-0.231541	-2.173103	-0.012624	-0.194192	-2.017881	-0.007768	-0.147511	-1.862660	-0.097102	-1.077257	-13.812740	0.000000	0.000000	10.158681	7.772044	3.510114	108.924756	-40.633502	59.712967	100.240728	84.343534	-2.743462	10.894550	16.019871	-8.402146	2.375442	111.550138	87.010705	-9.033551	29.538673
8.450000	2.694590	-0.133448	110.528657	0.238512	0.784854	0.860533	-2.519941	2.063809	-9.970577	6.896390	0.120365	36.431376	2.930415	0.000000	-0.769116	-6.587626	14.873360	6.123114	0.106868	30.637034	2.165584	0.000000	-0.004199	-0.080644	-2.522449	-0.007799	-0.107256	-2.680102	-0.006899	-0.196077	-2.680102	-0.004799	-0.196077	-2.207143	-0.003900	-0.164448	-2.049490	-0.002400	-0.124917	-1.891836	-0.029996	-0.912256	-14.029103	0.000000	0.000000	10.482373	7.647025	3.919202	109.859422	-40.399613	63.799247	100.324051	84.202747	-3.362442	9.752132	15.921804	-8.501952	2.283151	111.323606	86.852727	-9.073497	29.024092
8.466667	2.719777	0.000953	110.595840	0.238471	0.784953	0.860362	-2.514150	2.188974	-9.099334	7.079768	0.123565	36.386110	2.038099	0.000000	-0.822845	-6.660600	14.669335	6.145633	0.107262	30.755738	2.440613	0.000000	0.007121	-0.069311	-2.563753	0.013225	-0.092183	-2.723987	0.011699	-0.168522	-2.723987	0.008139	-0.168522	-2.243284	0.006613	-0.141339	-2.083049	0.004069	-0.107363	-1.922814	0.050866	-0.784058	-14.258823	0.000000	0.000000	10.798319	7.531419	4.290645	110.699262	-40.145992	67.697049	100.173807	84.084560	-4.338962	8.640090	15.750395	-8.595540	2.153496	111.102065	86.725220	-9.074986	28.499345
8.483333	2.748843	0.132331	110.677325	0.238405	0.785115	0.860191	-2.513317	2.313775	-8.293947	7.263369	0.126770	36.339903	1.209802	0.000000	-0.877694	-6.740046	14.494131	6.167054	0.107635	30.839520	2.770281	0.000000	0.018100	-0.059402	-2.611072	0.033613	-0.079005	-2.774264	0.029736	-0.144430	-2.774264	0.020686	-0.144430	-2.284688	0.016807	-0.121132	-2.121496	0.010342	-0.092014	-1.958304	0.129283	-0.671966	-14.521997	0.000000	0.000000	11.038123	7.447679	4.630221	111.261699	-39.838215	70.830428	99.816985	84.056773	-5.206242	7.808865	15.515605	-8.666722	1.974227	110.896364	86.636246	-9.014590	28.042722
8.500000	2.780036	0.254091	110.728674	0.238355	0.785344	0.860012	-2.519347	2.432185	-7.556075	7.416544	0.129443	36.289331	0.458071	0.000000	-0.950471	-6.821179	14.380701	6.165225	0.107603	30.849306	3.062587	0.000000	0.027696	-0.051205	-2.654433	0.051435	-0.068103	-2.820335	0.045502	-0.124500	-2.820335	0.031654	-0.124500	-2.322629	0.025719	-0.104417	-2.156727	0.015826	-0.079317	-1.990825	0.197832	-0.579242	-14.763161	0.000000	0.000000	11.160686	7.346818	4.869579	111.465981	-39.482962	72.935478	99.330650	84.091431	-6.195245	7.281321	15.233849	-8.701080	1.761524	110.705977	86.584794	-8.924656	27.677673
8.516667	2.814720	0.368341	110.759500	0.238300	0.785646	0.859872	-2.534072	2.540890	-7.009451	7.531808	0.131455	36.252183	-0.127328	0.000000	-1.031353	-6.906251	14.304039	6.161664	0.107541	30.800578	3.391473	0.000000	0.034353	-0.044703	-2.688023	0.063797	-0.059455	-2.856024	0.056439	-0.108691	-2.856024	0.039262	-0.108691	-2.352020	0.031900	-0.091158	-2.184018	0.019629	-0.069245	-2.016017	0.245381	-0.505688	-14.949976	0.000000	0.000000	11.117181	7.230468	4.960913	111.240634	-39.110120	73.736857	98.740677	84.145570	-6.951779	6.980586	14.955404	-8.695323	1.579822	110.503158	86.571185	-8.836618	27.411509
8.533333	2.854529	0.459614	110.772028	0.238226	0.785991	0.859737	-2.557001	2.638997	-6.656117	7.581175	0.132316	36.220489	-0.565938	0.000000	-1.114368	-6.992080	14.277670	6.142993	0.107215	30.693533	3.729108	0.000000	0.038815	-0.038165	-2.710563	0.072083	-0.050759	-2.879973	0.063768	-0.092794	-2.879973	0.044361	-0.092794	-2.371742	0.036043	-0.077826	-2.202332	0.022179	-0.059117	-2.032922	0.277249	-0.431727	-15.075336	0.000000	0.000000	10.989057	7.078513	4.995978	110.628922	-38.745550	73.244545	98.192942	84.264303	-7.553173	7.249844	14.666669	-8.644198	1.416150	110.325767	86.607624	-8.730174	27.223943
8.550000	2.903348	0.529632	110.735199	0.238206	0.786390	0.859658	-2.591915	2.730875	-6.463196	7.549771	0.131768	36.176031	-0.845383	0.000000	-1.190880	-7.086664	14.161819	6.132290	0.107029	30.581335	4.229058	0.000000	0.039315	-0.032273	-2.713956	0.073013	-0.042923	-2.883578	0.064591	-0.078468	-2.883578	0.044934	-0.078468	-2.374712	0.036508	-0.065810	-2.205089	0.022465	-0.049990	-2.035467	0.280826	-0.365074	-15.094210	0.000000	0.000000	10.857672	6.911394	4.890756	109.600227	-38.419958	71.480337	97.632517	84.315022	-7.806908	7.634544	14.420548	-8.569065	1.318469	110.184418	86.663724	-8.659303	27.243498
8.566667	2.934741	0.567507	110.681433	0.238211	0.786840	0.859612	-2.642422	2.790066	-6.425331	7.447816	0.129989	36.106749	-1.019094	0.000000	-1.269279	-7.153457	14.152969	6.101118	0.106485	30.412096	4.634193	0.000000	0.036187	-0.029617	-2.711092	0.067203	-0.039391	-2.880535	0.059452	-0.072012	-2.880535	0.041358	-0.072012	-2.372206	0.033604	-0.060396	-2.202762	0.020677	-0.045877	-2.033319	0.258482	-0.335037	-15.078282	0.000000	0.000000	10.813286	6.737043	4.734778	108.316526	-38.160305	68.871472	97.093782	84.426260	-8.006421	8.006566	14.179513	-8.495216	1.227217	110.134962	86.732965	-8.596300	27.422766
